<?xml version="1.0" encoding="iso-8859-1"?>
<!-- Generator: Adobe Illustrator 19.0.0, SVG Export Plug-In . SVG Version: 6.00 Build 0)  -->
<svg version="1.1" id="Layer_1" xmlns="http://www.w3.org/2000/svg" xmlns:xlink="http://www.w3.org/1999/xlink" x="0px" y="0px"
	 viewBox="0 0 475.877 475.877" style="enable-background:new 0 0 475.877 475.877;" xml:space="preserve">
<circle style="fill:#A2D4DE;" cx="237.939" cy="237.939" r="237.939"/>
<path style="fill:#276D69;" d="M297.616,230.1c-35.292,29.474-37.642,11.899-48.119,1.418
	c-10.271-10.271-27.057-12.569,1.418-48.108c28.351-35.378,109.716-63.022,109.716-63.022S332.388,201.056,297.616,230.1z"/>
<path style="fill:#355957;" d="M249.497,231.518c-10.271-10.271-27.057-12.569,1.418-48.108
	c28.351-35.378,109.716-63.022,109.716-63.022L249.497,231.518z"/>
<path style="fill:#E79E2D;" d="M265.512,248.251c4.617-4.617-25.552-36.067-30.806-30.806L59.086,366.599l-12.221,10.683
	c4.801-3.944,9.223-7.689,11.281-9.744l176.417-149.962c2.645-2.638,11.502,3.903,19.124,11.686c0,0-152.712,152.72-180.383,180.379
	c10.047,9.635,20.905,18.432,32.52,26.2l10.526-11.97L265.512,248.251z"/>
<g>
	<path style="fill:#D68A28;" d="M46.866,377.285c-0.367,0.299-0.73,0.599-1.1,0.902c0.007,0.011,0.015,0.026,0.026,0.037
		L46.866,377.285z"/>
	<path style="fill:#D68A28;" d="M234.563,217.576L58.147,367.538c-2.058,2.058-6.481,5.803-11.281,9.744l-1.078,0.939
		c8.243,11.274,17.463,21.773,27.521,31.416c27.667-27.652,180.383-180.375,180.383-180.375
		C246.069,221.479,237.209,214.938,234.563,217.576z"/>
</g>
<path style="fill:#CDCCCB;" d="M234.777,217.37L92.59,337.058l53.301,53.298l119.688-142.187
	C269.961,243.794,239.757,212.382,234.777,217.37z"/>
<path style="fill:#B1B1B2;" d="M234.777,217.37L92.59,337.058l26.675,26.671c0,0,135.489-133.398,134.426-134.464
	C245.995,221.565,237.269,214.874,234.777,217.37z"/>
<path style="fill:#BFBEBE;" d="M206.687,244.408l-103.187,83.565l49.769,53.589l86.689-103.632
	C243.289,274.597,210.482,240.621,206.687,244.408z"/>
<path style="fill:#AAAAAA;" d="M234.777,217.37L101.45,329.604l26.043,26.043c0,0,126.988-125.588,126.198-126.374
	C245.995,221.565,237.269,214.874,234.777,217.37z"/>
<g>
</g>
<g>
</g>
<g>
</g>
<g>
</g>
<g>
</g>
<g>
</g>
<g>
</g>
<g>
</g>
<g>
</g>
<g>
</g>
<g>
</g>
<g>
</g>
<g>
</g>
<g>
</g>
<g>
</g>
</svg>
